<svg data-v-0dd9719b="" version="1.0" xmlns="http://www.w3.org/2000/svg" xmlns:xlink="http://www.w3.org/1999/xlink" width="100%" height="100%" viewBox="0 0 340.000000 250.000000" preserveAspectRatio="xMidYMid meet" color-interpolation-filters="sRGB" fill-opacity="1" style="margin: auto;background: transparent;">   <g data-v-0dd9719b="" fill="#e2a171" class="icon-text-wrapper icon-svg-group iconsvg" transform="translate(81.875,48.96375297991469)"><g fill="#e2a171" class="iconsvg-imagesvg icon_container" transform="translate(59.625,0)"><rect fill="#e2a171" fill-opacity="0" stroke-width="2" x="0" y="0" width="60" height="60" class="image-rect"></rect> <svg viewBox="0 0 60 60.56018168054504" x="0" y="0" width="60" height="60" class="image-svg-svg bn" style="overflow: visible;"><g hollow-target="iconBnFill" mask="url(#103f3899-f897-43c1-a964-8b77a5592d78)"><g><svg xmlns="http://www.w3.org/2000/svg" xmlns:xlink="http://www.w3.org/1999/xlink" version="1.1" x="0" y="0" viewBox="0.29473 -0.0015 63.4099 64.00201" enable-background="new 0 0 64 64" xml:space="preserve" style="overflow: visible;" width="60" height="60.56018168054504" filtersec="colorsf2872315908" filter="url(#igocCWL4Saiiq-n0YyLV5)"><g transform="scale(1, 1) skewX(0)"><path d="M59.583,10.308c-8.457-2.251-17.348-4.487-26.916-6.703L32.643,3.6L32.62,3.59  c-0.146-0.059-0.384-0.098-0.619-0.097c-0.237-0.001-0.475,0.038-0.619,0.097L31.358,3.6l-0.024,0.005  c-9.57,2.216-18.46,4.452-26.918,6.703c-0.12,0.07-0.252,0.3-0.248,0.543c0,0.055,0.006,0.109,0.018,0.162  c1.551,6.784,2.322,13.7,2.322,20.618c0,6.253-0.642,12.506-1.915,18.662c-0.015,0.069-0.023,0.151-0.023,0.24  c-0.004,0.264,0.083,0.566,0.181,0.723c8.324,2.768,17.111,5.514,26.732,8.229l0.068,0.02l0.055,0.046  c0.096,0.081,0.243,0.131,0.396,0.131c0.151,0,0.298-0.05,0.394-0.131l0.054-0.046l0.07-0.02c9.62-2.716,18.406-5.462,26.73-8.229  c0.098-0.156,0.186-0.459,0.181-0.722c0-0.088-0.008-0.171-0.023-0.242h0.001c-1.277-6.169-1.915-12.438-1.915-18.706  c0-6.9,0.774-13.802,2.321-20.572c0.013-0.053,0.019-0.108,0.019-0.163C59.836,10.608,59.704,10.378,59.583,10.308z"></path><path d="M63.183,7.693c-9.535-2.539-19.559-5.06-30.348-7.558c-0.458-0.182-1.213-0.182-1.67,0  C20.376,2.634,10.353,5.155,0.818,7.693c-0.387,0.183-0.606,0.737-0.494,1.23C3.637,23.413,3.789,38.441,0.781,52.98  c-0.101,0.493,0.038,1.159,0.317,1.479c9.408,3.13,19.339,6.235,30.218,9.306c0.374,0.314,0.994,0.314,1.369,0  c10.878-3.07,20.809-6.176,30.217-9.306c0.28-0.319,0.419-0.985,0.317-1.479c-3.009-14.539-2.855-29.568,0.456-44.057  C63.788,8.431,63.568,7.876,63.183,7.693z M60.462,11.161c-1.536,6.722-2.305,13.572-2.305,20.424c0,6.223,0.633,12.446,1.9,18.571  l-0.325,0.067l0.325-0.066c0.025,0.123,0.036,0.248,0.036,0.376c-0.005,0.445-0.12,0.898-0.393,1.223l-0.06,0.068l-0.085,0.028  c-8.344,2.775-17.15,5.53-26.795,8.253c-0.226,0.164-0.496,0.239-0.761,0.24c-0.267-0.001-0.536-0.076-0.761-0.24  c-9.645-2.723-18.452-5.477-26.795-8.253l-0.086-0.028l-0.059-0.067c-0.273-0.324-0.388-0.778-0.393-1.225  c0-0.127,0.011-0.253,0.037-0.376c1.264-6.11,1.9-12.318,1.9-18.526c0-6.868-0.765-13.734-2.305-20.469  c-0.024-0.103-0.035-0.208-0.035-0.311c0.005-0.47,0.216-0.937,0.654-1.156l0.028-0.013l0.029-0.008  c8.466-2.253,17.365-4.492,26.945-6.71C31.415,2.868,31.707,2.83,32,2.829c0.292,0,0.583,0.04,0.837,0.133  c9.58,2.219,18.48,4.458,26.947,6.711l0.028,0.008l0.029,0.013c0.438,0.22,0.649,0.686,0.653,1.156  C60.496,10.953,60.485,11.058,60.462,11.161z"></path></g><defs><filter id="igocCWL4Saiiq-n0YyLV5"><feColorMatrix type="matrix" values="0 0 0 0 0.8828125  0 0 0 0 0.62890625  0 0 0 0 0.44140625  0 0 0 1 0"></feColorMatrix></filter></defs></svg></g> <g filter="url(#colors7134875907)"><svg xmlns="http://www.w3.org/2000/svg" xmlns:xlink="http://www.w3.org/1999/xlink" viewBox="0 0 138 66.00000000000001" width="40" height="40.37345" x="10" y="10.093365840272522" class="image-svg-letter"><path transform="translate(0 54.00000000000001)" d="M12.00-12.00L18-12.00L18 0L12.00 0ZM6.00 0L12.00 0L12.00 6.00L6.00 6.00ZM18-36L0-36L0-42L18-42L18-54.00L24.00-54.00L24.00-42L48.00-42L48.00 6.00L42 6.00L42-36L24.00-36L24.00-12.00L18-12.00ZM0 6.00L6.00 6.00L6.00 12.00L0 12.00ZM60.00-6.00L66-6.00L66 12.00L48.00 12.00L48.00 6.00L60.00 6.00ZM72-36L78-36L78-30.00L72-30.00ZM96-36L102-36L102-30.00L96-30.00ZM120-36L126-36L126-30.00L120-30.00ZM84-54.00L90-54.00L90-6.00L84-6.00L84-18L78-18L78-30.00L84-30.00ZM108-48.00L114-48.00L114 0L108 0L108-18L102-18L102-30.00L108-30.00ZM78-6.00L84-6.00L84 6.00L78 6.00ZM72 6.00L78 6.00L78 12.00L72 12.00ZM138 12.00L132 12.00L132-18L126-18L126-30.00L132-30.00L132-54.00L138-54.00Z"></path></svg></g></g><mask id="103f3899-f897-43c1-a964-8b77a5592d78"><g fill="white"><svg xmlns="http://www.w3.org/2000/svg" xmlns:xlink="http://www.w3.org/1999/xlink" version="1.1" x="0" y="0" viewBox="0.29473 -0.0015 63.4099 64.00201" enable-background="new 0 0 64 64" xml:space="preserve" style="overflow: visible;" width="60" height="60.56018168054504" filtersec="colorsf2872315908"><g transform="scale(1, 1) skewX(0)"><path d="M59.583,10.308c-8.457-2.251-17.348-4.487-26.916-6.703L32.643,3.6L32.62,3.59  c-0.146-0.059-0.384-0.098-0.619-0.097c-0.237-0.001-0.475,0.038-0.619,0.097L31.358,3.6l-0.024,0.005  c-9.57,2.216-18.46,4.452-26.918,6.703c-0.12,0.07-0.252,0.3-0.248,0.543c0,0.055,0.006,0.109,0.018,0.162  c1.551,6.784,2.322,13.7,2.322,20.618c0,6.253-0.642,12.506-1.915,18.662c-0.015,0.069-0.023,0.151-0.023,0.24  c-0.004,0.264,0.083,0.566,0.181,0.723c8.324,2.768,17.111,5.514,26.732,8.229l0.068,0.02l0.055,0.046  c0.096,0.081,0.243,0.131,0.396,0.131c0.151,0,0.298-0.05,0.394-0.131l0.054-0.046l0.07-0.02c9.62-2.716,18.406-5.462,26.73-8.229  c0.098-0.156,0.186-0.459,0.181-0.722c0-0.088-0.008-0.171-0.023-0.242h0.001c-1.277-6.169-1.915-12.438-1.915-18.706  c0-6.9,0.774-13.802,2.321-20.572c0.013-0.053,0.019-0.108,0.019-0.163C59.836,10.608,59.704,10.378,59.583,10.308z"></path><path d="M63.183,7.693c-9.535-2.539-19.559-5.06-30.348-7.558c-0.458-0.182-1.213-0.182-1.67,0  C20.376,2.634,10.353,5.155,0.818,7.693c-0.387,0.183-0.606,0.737-0.494,1.23C3.637,23.413,3.789,38.441,0.781,52.98  c-0.101,0.493,0.038,1.159,0.317,1.479c9.408,3.13,19.339,6.235,30.218,9.306c0.374,0.314,0.994,0.314,1.369,0  c10.878-3.07,20.809-6.176,30.217-9.306c0.28-0.319,0.419-0.985,0.317-1.479c-3.009-14.539-2.855-29.568,0.456-44.057  C63.788,8.431,63.568,7.876,63.183,7.693z M60.462,11.161c-1.536,6.722-2.305,13.572-2.305,20.424c0,6.223,0.633,12.446,1.9,18.571  l-0.325,0.067l0.325-0.066c0.025,0.123,0.036,0.248,0.036,0.376c-0.005,0.445-0.12,0.898-0.393,1.223l-0.06,0.068l-0.085,0.028  c-8.344,2.775-17.15,5.53-26.795,8.253c-0.226,0.164-0.496,0.239-0.761,0.24c-0.267-0.001-0.536-0.076-0.761-0.24  c-9.645-2.723-18.452-5.477-26.795-8.253l-0.086-0.028l-0.059-0.067c-0.273-0.324-0.388-0.778-0.393-1.225  c0-0.127,0.011-0.253,0.037-0.376c1.264-6.11,1.9-12.318,1.9-18.526c0-6.868-0.765-13.734-2.305-20.469  c-0.024-0.103-0.035-0.208-0.035-0.311c0.005-0.47,0.216-0.937,0.654-1.156l0.028-0.013l0.029-0.008  c8.466-2.253,17.365-4.492,26.945-6.71C31.415,2.868,31.707,2.83,32,2.829c0.292,0,0.583,0.04,0.837,0.133  c9.58,2.219,18.48,4.458,26.947,6.711l0.028,0.008l0.029,0.013c0.438,0.22,0.649,0.686,0.653,1.156  C60.496,10.953,60.485,11.058,60.462,11.161z"></path></g><defs></defs></svg></g> <g fill="black"><svg xmlns="http://www.w3.org/2000/svg" xmlns:xlink="http://www.w3.org/1999/xlink" viewBox="0 0 138 66.00000000000001" width="40" height="40.37345" x="10" y="10.093365840272522" class="image-svg-letter"><path transform="translate(0 54.00000000000001)" d="M12.00-12.00L18-12.00L18 0L12.00 0ZM6.00 0L12.00 0L12.00 6.00L6.00 6.00ZM18-36L0-36L0-42L18-42L18-54.00L24.00-54.00L24.00-42L48.00-42L48.00 6.00L42 6.00L42-36L24.00-36L24.00-12.00L18-12.00ZM0 6.00L6.00 6.00L6.00 12.00L0 12.00ZM60.00-6.00L66-6.00L66 12.00L48.00 12.00L48.00 6.00L60.00 6.00ZM72-36L78-36L78-30.00L72-30.00ZM96-36L102-36L102-30.00L96-30.00ZM120-36L126-36L126-30.00L120-30.00ZM84-54.00L90-54.00L90-6.00L84-6.00L84-18L78-18L78-30.00L84-30.00ZM108-48.00L114-48.00L114 0L108 0L108-18L102-18L102-30.00L108-30.00ZM78-6.00L84-6.00L84 6.00L78 6.00ZM72 6.00L78 6.00L78 12.00L72 12.00ZM138 12.00L132 12.00L132-18L126-18L126-30.00L132-30.00L132-54.00L138-54.00Z"></path></svg></g></mask></svg> <defs><filter id="colors7134875907"><feColorMatrix type="matrix" values="0 0 0 0 0.8828125  0 0 0 0 0.62890625  0 0 0 0 0.44140625  0 0 0 1 0" class="icon-fecolormatrix"></feColorMatrix></filter> <filter id="colorsf2872315908"><feColorMatrix type="matrix" values="0 0 0 0 0.99609375  0 0 0 0 0.99609375  0 0 0 0 0.99609375  0 0 0 1 0" class="icon-fecolormatrix"></feColorMatrix></filter> <filter id="colorsb3215810868"><feColorMatrix type="matrix" values="0 0 0 0 0  0 0 0 0 0  0 0 0 0 0  0 0 0 1 0" class="icon-fecolormatrix"></feColorMatrix></filter></defs></g> <g transform="translate(0,67)"><g fill-rule="" class="iconsvg-namesvg tp-name" transform="translate(0,0)"><g transform="scale(1)"><g><g fill="#ff0050" data-gra-ignore="true" transform="translate(1.5, 1.5)"><path d="M7.5-9.75Q9.36-10.31 11.25-10.87 11.25-9 11.25-7.12 11.25-5.25 11.25-3.37 9.36-2.81 7.5-2.25 7.5-4.12 7.5-6 7.5-7.87 7.5-9.75M3.75-1.12Q5.62-1.68 7.5-2.25 7.5-0.37 7.5 1.5 5.62 2.06 3.75 2.62 3.75 0.74 3.75-1.12M11.25-25.87Q9.84-25.45 8.43-25.03 7.02-24.6 5.62-24.18 4.21-23.76 2.81-23.34 1.4-22.92 0-22.5 0-24.37 0-26.25 1.4-26.67 2.81-27.09 4.21-27.51 5.62-27.93 7.02-28.35 8.43-28.78 9.84-29.2 11.25-29.62 11.25-31.5 11.25-33.37 11.25-35.25 11.25-37.12 13.12-37.68 15-38.25 15-36.37 15-34.5 15-32.62 15-30.75 16.87-31.31 18.75-31.87 20.62-32.43 22.5-33 24.37-33.56 26.25-34.12 28.12-34.68 30-35.25 30-33.37 30-31.5 30-29.62 30-27.75 30-25.87 30-24 30-22.12 30-20.25 30-18.37 30-16.5 30-14.62 30-12.75 30-10.87 30-9 30-7.12 30-5.25 28.12-4.68 26.25-4.12 26.25-5.76 26.25-7.4 26.25-9.04 26.25-10.68 26.25-12.32 26.25-13.96 26.25-15.6 26.25-17.24 26.25-18.88 26.25-20.52 26.25-22.16 26.25-23.81 26.25-25.45 26.25-27.09 26.25-28.73 26.25-30.37 24.84-29.95 23.43-29.53 22.02-29.1 20.62-28.68 19.21-28.26 17.81-27.84 16.4-27.42 15-27 15-25.12 15-23.25 15-21.37 15-19.5 15-17.62 15-15.75 15-13.87 15-12 13.12-11.43 11.25-10.87 11.25-12.75 11.25-14.62 11.25-16.5 11.25-18.37 11.25-20.25 11.25-22.12 11.25-24 11.25-25.87M0 3.75Q1.87 3.18 3.75 2.62 3.75 4.49 3.75 6.37 1.87 6.93 0 7.5 0 5.62 0 3.75M37.5-15Q39.36-15.56 41.25-16.12 41.25-14.72 41.25-13.31 41.25-11.9 41.25-10.5 41.25-9.09 41.25-7.68 41.25-6.28 41.25-4.87 39.84-4.45 38.43-4.03 37.02-3.6 35.62-3.18 34.21-2.76 32.81-2.34 31.4-1.92 30-1.5 30-3.38 30-5.25 31.87-5.81 33.75-6.37 35.62-6.93 37.5-7.5 37.5-9.37 37.5-11.25 37.5-13.12 37.5-15M45-36Q46.87-36.56 48.75-37.12 48.75-35.24 48.75-33.37 46.87-32.81 45-32.25 45-34.12 45-36M60-40.5Q61.87-41.06 63.75-41.62 63.75-39.74 63.75-37.87 61.87-37.31 60-36.75 60-38.62 60-40.5M75-45Q76.87-45.56 78.75-46.12 78.75-44.24 78.75-42.37 76.87-41.81 75-41.25 75-43.12 75-45M52.5-49.5Q54.37-50.06 56.25-50.62 56.25-48.75 56.25-46.87 56.25-45 56.25-43.12 56.25-41.25 56.25-39.37 56.25-37.5 56.25-35.62 56.25-33.75 56.25-31.87 56.25-30 56.25-28.12 56.25-26.25 56.25-24.37 56.25-22.5 56.25-20.62 54.37-20.06 52.5-19.5 52.5-21.37 52.5-23.25 52.5-25.12 52.5-27 50.62-26.43 48.75-25.87 48.75-27.75 48.75-29.62 48.75-31.5 48.75-33.37 50.62-33.93 52.5-34.5 52.5-36.37 52.5-38.25 52.5-40.12 52.5-42 52.5-43.87 52.5-45.75 52.5-47.62 52.5-49.5M67.5-50.25Q69.37-50.81 71.25-51.37 71.25-49.5 71.25-47.62 71.25-45.75 71.25-43.87 71.25-42 71.25-40.12 71.25-38.25 71.25-36.37 71.25-34.5 71.25-32.62 71.25-30.75 71.25-28.87 71.25-27 71.25-25.12 71.25-23.25 71.25-21.37 69.37-20.81 67.5-20.25 67.5-21.65 67.5-23.06 67.5-24.46 67.5-25.87 67.5-27.27 67.5-28.68 67.5-30.09 67.5-31.5 65.62-30.93 63.75-30.37 63.75-32.25 63.75-34.12 63.75-36 63.75-37.87 65.62-38.43 67.5-39 67.5-40.4 67.5-41.81 67.5-43.21 67.5-44.62 67.5-46.02 67.5-47.43 67.5-48.84 67.5-50.25M48.75-18.37Q50.62-18.93 52.5-19.5 52.5-17.62 52.5-15.75 52.5-13.87 52.5-12 50.62-11.43 48.75-10.87 48.75-12.75 48.75-14.62 48.75-16.5 48.75-18.37M45-9.75Q46.87-10.31 48.75-10.87 48.75-9 48.75-7.12 46.87-6.56 45-6 45-7.88 45-9.75M86.25-18.37Q84.37-17.81 82.5-17.25 82.5-19.59 82.5-21.93 82.5-24.27 82.5-26.62 82.5-28.96 82.5-31.31 82.5-33.65 82.5-36 80.62-35.43 78.75-34.87 78.75-36.75 78.75-38.62 78.75-40.5 78.75-42.37 80.62-42.93 82.5-43.5 82.5-45.37 82.5-47.25 82.5-49.12 82.5-51 82.5-52.87 82.5-54.75 82.5-56.62 82.5-58.5 84.37-59.06 86.25-59.62 86.25-58.33 86.25-57.04 86.25-55.75 86.25-54.46 86.25-53.17 86.25-51.88 86.25-50.59 86.25-49.31 86.25-48.02 86.25-46.73 86.25-45.44 86.25-44.15 86.25-42.86 86.25-41.57 86.25-40.28 86.25-38.99 86.25-37.7 86.25-36.41 86.25-35.13 86.25-33.84 86.25-32.55 86.25-31.26 86.25-29.97 86.25-28.68 86.25-27.39 86.25-26.1 86.25-24.81 86.25-23.53 86.25-22.24 86.25-20.95 86.25-19.66 86.25-18.37M112.5-26.62Q114.37-26.06 116.25-25.5 118.12-24.93 120-24.37 120-25.78 120-27.18 120-28.59 120-29.99 120-31.4 120-32.81 120-34.21 120-35.62 118.12-36.18 116.25-36.75 114.37-37.31 112.5-37.87 112.5-36.46 112.5-35.06 112.5-33.65 112.5-32.24 112.5-30.84 112.5-29.43 112.5-28.03 112.5-26.62M108.75-42.75Q108.75-44.15 108.75-45.56 108.75-46.96 108.75-48.37 108.75-49.77 108.75-51.18 108.75-52.59 108.75-54 110.62-53.43 112.5-52.87 112.5-51.46 112.5-50.06 112.5-48.65 112.5-47.24 112.5-45.84 112.5-44.43 112.5-43.03 112.5-41.62 114.37-41.06 116.25-40.5 118.12-39.93 120-39.37 120-40.78 120-42.18 120-43.59 120-44.99 120-46.4 120-47.81 120-49.21 120-50.62 121.87-50.06 123.75-49.5 123.75-48.09 123.75-46.68 123.75-45.27 123.75-43.87 123.75-42.46 123.75-41.06 123.75-39.65 123.75-38.25 125.62-37.68 127.5-37.12 129.37-36.56 131.25-36 131.25-34.12 131.25-32.25 129.37-32.81 127.5-33.37 125.62-33.93 123.75-34.5 123.75-32.62 123.75-30.75 123.75-28.87 123.75-27 123.75-25.12 123.75-23.25 123.75-21.37 123.75-19.5 121.87-20.06 120-20.62 118.12-21.18 116.25-21.75 114.37-22.31 112.5-22.87 110.62-23.43 108.75-24 108.75-25.87 108.75-27.75 108.75-29.62 108.75-31.5 108.75-33.37 108.75-35.25 108.75-37.12 108.75-39 106.87-39.56 105-40.12 103.12-40.68 101.25-41.25 101.25-39.84 101.25-38.43 101.25-37.03 101.25-35.62 101.25-34.21 101.25-32.81 101.25-31.4 101.25-30 101.25-28.59 101.25-27.18 101.25-25.78 101.25-24.37 101.25-22.96 101.25-21.56 101.25-20.15 101.25-18.75 103.12-18.18 105-17.62 106.87-17.06 108.75-16.5 110.62-15.93 112.5-15.37 114.37-14.81 116.25-14.25 118.12-13.68 120-13.12 121.87-12.56 123.75-12 125.62-11.43 127.5-10.87 129.37-10.31 131.25-9.75 131.25-7.88 131.25-6 129.13-6.63 127.03-7.26 124.92-7.89 122.81-8.53 120.7-9.16 118.59-9.79 116.48-10.43 114.37-11.06 112.26-11.69 110.15-12.32 108.04-12.96 105.93-13.59 103.82-14.22 101.71-14.85 99.6-15.49 97.5-16.12 97.5-17.76 97.5-19.4 97.5-21.04 97.5-22.68 97.5-24.32 97.5-25.96 97.5-27.6 97.5-29.24 97.5-30.88 97.5-32.52 97.5-34.16 97.5-35.81 97.5-37.45 97.5-39.09 97.5-40.73 97.5-42.37 95.62-42.93 93.75-43.5 91.87-44.06 90-44.62 90-46.49 90-48.37 91.87-47.81 93.75-47.25 95.62-46.68 97.5-46.12 97.5-47.53 97.5-48.93 97.5-50.34 97.5-51.74 97.5-53.15 97.5-54.56 97.5-55.96 97.5-57.37 99.37-56.81 101.25-56.25 101.25-54.84 101.25-53.43 101.25-52.02 101.25-50.62 101.25-49.21 101.25-47.81 101.25-46.4 101.25-45 103.12-44.43 105-43.87 106.87-43.31 108.75-42.75M168.75-32.25Q167.34-32.67 165.93-33.09 164.52-33.51 163.12-33.93 161.71-34.36 160.31-34.78 158.9-35.2 157.5-35.62 157.5-33.74 157.5-31.87 158.9-31.45 160.31-31.03 161.71-30.61 163.12-30.18 164.52-29.76 165.93-29.34 167.34-28.92 168.75-28.5 168.75-30.37 168.75-32.25M157.5-24.37Q158.9-23.95 160.31-23.53 161.71-23.11 163.12-22.68 164.52-22.26 165.93-21.84 167.34-21.42 168.75-21 168.75-22.87 168.75-24.75 167.34-25.17 165.93-25.59 164.52-26.01 163.12-26.43 161.71-26.86 160.31-27.28 158.9-27.7 157.5-28.12 157.5-26.24 157.5-24.37M172.5-34.87Q172.5-32.53 172.5-30.18 172.5-27.84 172.5-25.49 172.5-23.15 172.5-20.81 172.5-18.46 172.5-16.12 170.62-16.68 168.75-17.25 166.87-17.81 165-18.37 165-16.49 165-14.62 163.12-15.18 161.25-15.75 161.25-17.61 161.25-19.5 159.84-19.92 158.43-20.34 157.02-20.76 155.62-21.18 154.21-21.61 152.81-22.03 151.4-22.45 150-22.87 150-20.99 150-19.12 148.12-19.68 146.25-20.25 146.25-22.11 146.25-24 144.37-24.56 142.5-25.12 140.62-25.68 138.75-26.25 138.75-28.59 138.75-30.93 138.75-33.27 138.75-35.62 138.75-37.96 138.75-40.31 138.75-42.65 138.75-45 140.85-44.36 142.96-43.73 145.07-43.1 147.18-42.46 149.29-41.83 151.4-41.2 153.51-40.57 155.62-39.93 157.73-39.3 159.84-38.67 161.95-38.03 164.06-37.4 166.17-36.77 168.28-36.14 170.39-35.5 172.5-34.87M142.5-32.62Q142.5-30.74 142.5-28.87 143.9-28.45 145.31-28.03 146.71-27.61 148.12-27.18 149.52-26.76 150.93-26.34 152.34-25.92 153.75-25.5 153.75-27.37 153.75-29.25 152.34-29.67 150.93-30.09 149.52-30.51 148.12-30.93 146.71-31.36 145.31-31.78 143.9-32.2 142.5-32.62M153.75-33Q153.75-34.87 153.75-36.75 152.34-37.17 150.93-37.59 149.52-38.01 148.12-38.43 146.71-38.86 145.31-39.28 143.9-39.7 142.5-40.12 142.5-38.24 142.5-36.37 143.9-35.95 145.31-35.53 146.71-35.11 148.12-34.68 149.52-34.26 150.93-33.84 152.34-33.42 153.75-33M142.5-21.37Q144.37-20.81 146.25-20.25 146.25-18.36 146.25-16.5 144.37-17.06 142.5-17.62 142.5-19.49 142.5-21.37M165-14.62Q166.87-14.06 168.75-13.5 168.75-11.62 168.75-9.75 166.87-10.31 165-10.87 165-12.74 165-14.62M135-19.87Q136.87-19.31 138.75-18.75 140.62-18.18 142.5-17.62 142.5-15.74 142.5-13.87 140.62-14.43 138.75-15 136.87-15.56 135-16.12 135-17.99 135-19.87M168.75-9.75Q170.62-9.18 172.5-8.62 174.37-8.06 176.25-7.5 176.25-5.62 176.25-3.75 174.37-4.31 172.5-4.87 170.62-5.43 168.75-6 168.75-7.87 168.75-9.75M146.25-16.5Q148.12-15.93 150-15.37 150-13.5 150-11.62 150-9.75 150-7.87 148.12-8.43 146.25-9 146.25-10.87 146.25-12.75 146.25-14.62 146.25-16.5M142.5-10.12Q144.37-9.56 146.25-9 146.25-7.13 146.25-5.25 144.37-5.81 142.5-6.37 142.5-8.25 142.5-10.12M142.5-2.62Q140.62-3.18 138.75-3.75 136.87-4.31 135-4.87 135-6.75 135-8.62 136.87-8.06 138.75-7.5 140.62-6.93 142.5-6.37 142.5-4.5 142.5-2.62M161.25-12Q163.12-11.43 165-10.87 165-9 165-7.12 165-5.25 165-3.37 165-1.5 165 0.37 165 2.25 165 4.12 163.12 3.56 161.25 3 161.25 1.12 161.25-0.75 161.25-2.62 161.25-4.5 161.25-6.37 161.25-8.25 161.25-10.12 161.25-12" transform="translate(0, 59.619998931884766)"></path></g><g fill="#00faf0" data-gra-ignore="true" transform="translate(-1.5, -1.5)"><path d="M7.5-9.75Q9.36-10.31 11.25-10.87 11.25-9 11.25-7.12 11.25-5.25 11.25-3.37 9.36-2.81 7.5-2.25 7.5-4.12 7.5-6 7.5-7.87 7.5-9.75M3.75-1.12Q5.62-1.68 7.5-2.25 7.5-0.37 7.5 1.5 5.62 2.06 3.75 2.62 3.75 0.74 3.75-1.12M11.25-25.87Q9.84-25.45 8.43-25.03 7.02-24.6 5.62-24.18 4.21-23.76 2.81-23.34 1.4-22.92 0-22.5 0-24.37 0-26.25 1.4-26.67 2.81-27.09 4.21-27.51 5.62-27.93 7.02-28.35 8.43-28.78 9.84-29.2 11.25-29.62 11.25-31.5 11.25-33.37 11.25-35.25 11.25-37.12 13.12-37.68 15-38.25 15-36.37 15-34.5 15-32.62 15-30.75 16.87-31.31 18.75-31.87 20.62-32.43 22.5-33 24.37-33.56 26.25-34.12 28.12-34.68 30-35.25 30-33.37 30-31.5 30-29.62 30-27.75 30-25.87 30-24 30-22.12 30-20.25 30-18.37 30-16.5 30-14.62 30-12.75 30-10.87 30-9 30-7.12 30-5.25 28.12-4.68 26.25-4.12 26.25-5.76 26.25-7.4 26.25-9.04 26.25-10.68 26.25-12.32 26.25-13.96 26.25-15.6 26.25-17.24 26.25-18.88 26.25-20.52 26.25-22.16 26.25-23.81 26.25-25.45 26.25-27.09 26.25-28.73 26.25-30.37 24.84-29.95 23.43-29.53 22.02-29.1 20.62-28.68 19.21-28.26 17.81-27.84 16.4-27.42 15-27 15-25.12 15-23.25 15-21.37 15-19.5 15-17.62 15-15.75 15-13.87 15-12 13.12-11.43 11.25-10.87 11.25-12.75 11.25-14.62 11.25-16.5 11.25-18.37 11.25-20.25 11.25-22.12 11.25-24 11.25-25.87M0 3.75Q1.87 3.18 3.75 2.62 3.75 4.49 3.75 6.37 1.87 6.93 0 7.5 0 5.62 0 3.75M37.5-15Q39.36-15.56 41.25-16.12 41.25-14.72 41.25-13.31 41.25-11.9 41.25-10.5 41.25-9.09 41.25-7.68 41.25-6.28 41.25-4.87 39.84-4.45 38.43-4.03 37.02-3.6 35.62-3.18 34.21-2.76 32.81-2.34 31.4-1.92 30-1.5 30-3.38 30-5.25 31.87-5.81 33.75-6.37 35.62-6.93 37.5-7.5 37.5-9.37 37.5-11.25 37.5-13.12 37.5-15M45-36Q46.87-36.56 48.75-37.12 48.75-35.24 48.75-33.37 46.87-32.81 45-32.25 45-34.12 45-36M60-40.5Q61.87-41.06 63.75-41.62 63.75-39.74 63.75-37.87 61.87-37.31 60-36.75 60-38.62 60-40.5M75-45Q76.87-45.56 78.75-46.12 78.75-44.24 78.75-42.37 76.87-41.81 75-41.25 75-43.12 75-45M52.5-49.5Q54.37-50.06 56.25-50.62 56.25-48.75 56.25-46.87 56.25-45 56.25-43.12 56.25-41.25 56.25-39.37 56.25-37.5 56.25-35.62 56.25-33.75 56.25-31.87 56.25-30 56.25-28.12 56.25-26.25 56.25-24.37 56.25-22.5 56.25-20.62 54.37-20.06 52.5-19.5 52.5-21.37 52.5-23.25 52.5-25.12 52.5-27 50.62-26.43 48.75-25.87 48.75-27.75 48.75-29.62 48.75-31.5 48.75-33.37 50.62-33.93 52.5-34.5 52.5-36.37 52.5-38.25 52.5-40.12 52.5-42 52.5-43.87 52.5-45.75 52.5-47.62 52.5-49.5M67.5-50.25Q69.37-50.81 71.25-51.37 71.25-49.5 71.25-47.62 71.25-45.75 71.25-43.87 71.25-42 71.25-40.12 71.25-38.25 71.25-36.37 71.25-34.5 71.25-32.62 71.25-30.75 71.25-28.87 71.25-27 71.25-25.12 71.25-23.25 71.25-21.37 69.37-20.81 67.5-20.25 67.5-21.65 67.5-23.06 67.5-24.46 67.5-25.87 67.5-27.27 67.5-28.68 67.5-30.09 67.5-31.5 65.62-30.93 63.75-30.37 63.75-32.25 63.75-34.12 63.75-36 63.75-37.87 65.62-38.43 67.5-39 67.5-40.4 67.5-41.81 67.5-43.21 67.5-44.62 67.5-46.02 67.5-47.43 67.5-48.84 67.5-50.25M48.75-18.37Q50.62-18.93 52.5-19.5 52.5-17.62 52.5-15.75 52.5-13.87 52.5-12 50.62-11.43 48.75-10.87 48.75-12.75 48.75-14.62 48.75-16.5 48.75-18.37M45-9.75Q46.87-10.31 48.75-10.87 48.75-9 48.75-7.12 46.87-6.56 45-6 45-7.88 45-9.75M86.25-18.37Q84.37-17.81 82.5-17.25 82.5-19.59 82.5-21.93 82.5-24.27 82.5-26.62 82.5-28.96 82.5-31.31 82.5-33.65 82.5-36 80.62-35.43 78.75-34.87 78.75-36.75 78.75-38.62 78.75-40.5 78.75-42.37 80.62-42.93 82.5-43.5 82.5-45.37 82.5-47.25 82.5-49.12 82.5-51 82.5-52.87 82.5-54.75 82.5-56.62 82.5-58.5 84.37-59.06 86.25-59.62 86.25-58.33 86.25-57.04 86.25-55.75 86.25-54.46 86.25-53.17 86.25-51.88 86.25-50.59 86.25-49.31 86.25-48.02 86.25-46.73 86.25-45.44 86.25-44.15 86.25-42.86 86.25-41.57 86.25-40.28 86.25-38.99 86.25-37.7 86.25-36.41 86.25-35.13 86.25-33.84 86.25-32.55 86.25-31.26 86.25-29.97 86.25-28.68 86.25-27.39 86.25-26.1 86.25-24.81 86.25-23.53 86.25-22.24 86.25-20.95 86.25-19.66 86.25-18.37M112.5-26.62Q114.37-26.06 116.25-25.5 118.12-24.93 120-24.37 120-25.78 120-27.18 120-28.59 120-29.99 120-31.4 120-32.81 120-34.21 120-35.62 118.12-36.18 116.25-36.75 114.37-37.31 112.5-37.87 112.5-36.46 112.5-35.06 112.5-33.65 112.5-32.24 112.5-30.84 112.5-29.43 112.5-28.03 112.5-26.62M108.75-42.75Q108.75-44.15 108.75-45.56 108.75-46.96 108.75-48.37 108.75-49.77 108.75-51.18 108.75-52.59 108.75-54 110.62-53.43 112.5-52.87 112.5-51.46 112.5-50.06 112.5-48.65 112.5-47.24 112.5-45.84 112.5-44.43 112.5-43.03 112.5-41.62 114.37-41.06 116.25-40.5 118.12-39.93 120-39.37 120-40.78 120-42.18 120-43.59 120-44.99 120-46.4 120-47.81 120-49.21 120-50.62 121.87-50.06 123.75-49.5 123.75-48.09 123.75-46.68 123.75-45.27 123.75-43.87 123.75-42.46 123.75-41.06 123.75-39.65 123.75-38.25 125.62-37.68 127.5-37.12 129.37-36.56 131.25-36 131.25-34.12 131.25-32.25 129.37-32.81 127.5-33.37 125.62-33.93 123.75-34.5 123.75-32.62 123.75-30.75 123.75-28.87 123.75-27 123.75-25.12 123.75-23.25 123.75-21.37 123.75-19.5 121.87-20.06 120-20.62 118.12-21.18 116.25-21.75 114.37-22.31 112.5-22.87 110.62-23.43 108.75-24 108.75-25.87 108.75-27.75 108.75-29.62 108.75-31.5 108.75-33.37 108.75-35.25 108.75-37.12 108.75-39 106.87-39.56 105-40.12 103.12-40.68 101.25-41.25 101.25-39.84 101.25-38.43 101.25-37.03 101.25-35.62 101.25-34.21 101.25-32.81 101.25-31.4 101.25-30 101.25-28.59 101.25-27.18 101.25-25.78 101.25-24.37 101.25-22.96 101.25-21.56 101.25-20.15 101.25-18.75 103.12-18.18 105-17.62 106.87-17.06 108.75-16.5 110.62-15.93 112.5-15.37 114.37-14.81 116.25-14.25 118.12-13.68 120-13.12 121.87-12.56 123.75-12 125.62-11.43 127.5-10.87 129.37-10.31 131.25-9.75 131.25-7.88 131.25-6 129.13-6.63 127.03-7.26 124.92-7.89 122.81-8.53 120.7-9.16 118.59-9.79 116.48-10.43 114.37-11.06 112.26-11.69 110.15-12.32 108.04-12.96 105.93-13.59 103.82-14.22 101.71-14.85 99.6-15.49 97.5-16.12 97.5-17.76 97.5-19.4 97.5-21.04 97.5-22.68 97.5-24.32 97.5-25.96 97.5-27.6 97.5-29.24 97.5-30.88 97.5-32.52 97.5-34.16 97.5-35.81 97.5-37.45 97.5-39.09 97.5-40.73 97.5-42.37 95.62-42.93 93.75-43.5 91.87-44.06 90-44.62 90-46.49 90-48.37 91.87-47.81 93.75-47.25 95.62-46.68 97.5-46.12 97.5-47.53 97.5-48.93 97.5-50.34 97.5-51.74 97.5-53.15 97.5-54.56 97.5-55.96 97.5-57.37 99.37-56.81 101.25-56.25 101.25-54.84 101.25-53.43 101.25-52.02 101.25-50.62 101.25-49.21 101.25-47.81 101.25-46.4 101.25-45 103.12-44.43 105-43.87 106.87-43.31 108.75-42.75M168.75-32.25Q167.34-32.67 165.93-33.09 164.52-33.51 163.12-33.93 161.71-34.36 160.31-34.78 158.9-35.2 157.5-35.62 157.5-33.74 157.5-31.87 158.9-31.45 160.31-31.03 161.71-30.61 163.12-30.18 164.52-29.76 165.93-29.34 167.34-28.92 168.75-28.5 168.75-30.37 168.75-32.25M157.5-24.37Q158.9-23.95 160.31-23.53 161.71-23.11 163.12-22.68 164.52-22.26 165.93-21.84 167.34-21.42 168.75-21 168.75-22.87 168.75-24.75 167.34-25.17 165.93-25.59 164.52-26.01 163.12-26.43 161.71-26.86 160.31-27.28 158.9-27.7 157.5-28.12 157.5-26.24 157.5-24.37M172.5-34.87Q172.5-32.53 172.5-30.18 172.5-27.84 172.5-25.49 172.5-23.15 172.5-20.81 172.5-18.46 172.5-16.12 170.62-16.68 168.75-17.25 166.87-17.81 165-18.37 165-16.49 165-14.62 163.12-15.18 161.25-15.75 161.25-17.61 161.25-19.5 159.84-19.92 158.43-20.34 157.02-20.76 155.62-21.18 154.21-21.61 152.81-22.03 151.4-22.45 150-22.87 150-20.99 150-19.12 148.12-19.68 146.25-20.25 146.25-22.11 146.25-24 144.37-24.56 142.5-25.12 140.62-25.68 138.75-26.25 138.75-28.59 138.75-30.93 138.75-33.27 138.75-35.62 138.75-37.96 138.75-40.31 138.75-42.65 138.75-45 140.85-44.36 142.96-43.73 145.07-43.1 147.18-42.46 149.29-41.83 151.4-41.2 153.51-40.57 155.62-39.93 157.73-39.3 159.84-38.67 161.95-38.03 164.06-37.4 166.17-36.77 168.28-36.14 170.39-35.5 172.5-34.87M142.5-32.62Q142.5-30.74 142.5-28.87 143.9-28.45 145.31-28.03 146.71-27.61 148.12-27.18 149.52-26.76 150.93-26.34 152.34-25.92 153.75-25.5 153.75-27.37 153.75-29.25 152.34-29.67 150.93-30.09 149.52-30.51 148.12-30.93 146.71-31.36 145.31-31.78 143.9-32.2 142.5-32.62M153.75-33Q153.75-34.87 153.75-36.75 152.34-37.17 150.93-37.59 149.52-38.01 148.12-38.43 146.71-38.86 145.31-39.28 143.9-39.7 142.5-40.12 142.5-38.24 142.5-36.37 143.9-35.95 145.31-35.53 146.71-35.11 148.12-34.68 149.52-34.26 150.93-33.84 152.34-33.42 153.75-33M142.5-21.37Q144.37-20.81 146.25-20.25 146.25-18.36 146.25-16.5 144.37-17.06 142.5-17.62 142.5-19.49 142.5-21.37M165-14.62Q166.87-14.06 168.75-13.5 168.75-11.62 168.75-9.75 166.87-10.31 165-10.87 165-12.74 165-14.62M135-19.87Q136.87-19.31 138.75-18.75 140.62-18.18 142.5-17.62 142.5-15.74 142.5-13.87 140.62-14.43 138.75-15 136.87-15.56 135-16.12 135-17.99 135-19.87M168.75-9.75Q170.62-9.18 172.5-8.62 174.37-8.06 176.25-7.5 176.25-5.62 176.25-3.75 174.37-4.31 172.5-4.87 170.62-5.43 168.75-6 168.75-7.87 168.75-9.75M146.25-16.5Q148.12-15.93 150-15.37 150-13.5 150-11.62 150-9.75 150-7.87 148.12-8.43 146.25-9 146.25-10.87 146.25-12.75 146.25-14.62 146.25-16.5M142.5-10.12Q144.37-9.56 146.25-9 146.25-7.13 146.25-5.25 144.37-5.81 142.5-6.37 142.5-8.25 142.5-10.12M142.5-2.62Q140.62-3.18 138.75-3.75 136.87-4.31 135-4.87 135-6.75 135-8.62 136.87-8.06 138.75-7.5 140.62-6.93 142.5-6.37 142.5-4.5 142.5-2.62M161.25-12Q163.12-11.43 165-10.87 165-9 165-7.12 165-5.25 165-3.37 165-1.5 165 0.37 165 2.25 165 4.12 163.12 3.56 161.25 3 161.25 1.12 161.25-0.75 161.25-2.62 161.25-4.5 161.25-6.37 161.25-8.25 161.25-10.12 161.25-12" transform="translate(0, 59.619998931884766)"></path></g><g><path d="M7.5-9.75Q9.36-10.31 11.25-10.87 11.25-9 11.25-7.12 11.25-5.25 11.25-3.37 9.36-2.81 7.5-2.25 7.5-4.12 7.5-6 7.5-7.87 7.5-9.75M3.75-1.12Q5.62-1.68 7.5-2.25 7.5-0.37 7.5 1.5 5.62 2.06 3.75 2.62 3.75 0.74 3.75-1.12M11.25-25.87Q9.84-25.45 8.43-25.03 7.02-24.6 5.62-24.18 4.21-23.76 2.81-23.34 1.4-22.92 0-22.5 0-24.37 0-26.25 1.4-26.67 2.81-27.09 4.21-27.51 5.62-27.93 7.02-28.35 8.43-28.78 9.84-29.2 11.25-29.62 11.25-31.5 11.25-33.37 11.25-35.25 11.25-37.12 13.12-37.68 15-38.25 15-36.37 15-34.5 15-32.62 15-30.75 16.87-31.31 18.75-31.87 20.62-32.43 22.5-33 24.37-33.56 26.25-34.12 28.12-34.68 30-35.25 30-33.37 30-31.5 30-29.62 30-27.75 30-25.87 30-24 30-22.12 30-20.25 30-18.37 30-16.5 30-14.62 30-12.75 30-10.87 30-9 30-7.12 30-5.25 28.12-4.68 26.25-4.12 26.25-5.76 26.25-7.4 26.25-9.04 26.25-10.68 26.25-12.32 26.25-13.96 26.25-15.6 26.25-17.24 26.25-18.88 26.25-20.52 26.25-22.16 26.25-23.81 26.25-25.45 26.25-27.09 26.25-28.73 26.25-30.37 24.84-29.95 23.43-29.53 22.02-29.1 20.62-28.68 19.21-28.26 17.81-27.84 16.4-27.42 15-27 15-25.12 15-23.25 15-21.37 15-19.5 15-17.62 15-15.75 15-13.87 15-12 13.12-11.43 11.25-10.87 11.25-12.75 11.25-14.62 11.25-16.5 11.25-18.37 11.25-20.25 11.25-22.12 11.25-24 11.25-25.87M0 3.75Q1.87 3.18 3.75 2.62 3.75 4.49 3.75 6.37 1.87 6.93 0 7.5 0 5.62 0 3.75M37.5-15Q39.36-15.56 41.25-16.12 41.25-14.72 41.25-13.31 41.25-11.9 41.25-10.5 41.25-9.09 41.25-7.68 41.25-6.28 41.25-4.87 39.84-4.45 38.43-4.03 37.02-3.6 35.62-3.18 34.21-2.76 32.81-2.34 31.4-1.92 30-1.5 30-3.38 30-5.25 31.87-5.81 33.75-6.37 35.62-6.93 37.5-7.5 37.5-9.37 37.5-11.25 37.5-13.12 37.5-15M45-36Q46.87-36.56 48.75-37.12 48.75-35.24 48.75-33.37 46.87-32.81 45-32.25 45-34.12 45-36M60-40.5Q61.87-41.06 63.75-41.62 63.75-39.74 63.75-37.87 61.87-37.31 60-36.75 60-38.62 60-40.5M75-45Q76.87-45.56 78.75-46.12 78.75-44.24 78.75-42.37 76.87-41.81 75-41.25 75-43.12 75-45M52.5-49.5Q54.37-50.06 56.25-50.62 56.25-48.75 56.25-46.87 56.25-45 56.25-43.12 56.25-41.25 56.25-39.37 56.25-37.5 56.25-35.62 56.25-33.75 56.25-31.87 56.25-30 56.25-28.12 56.25-26.25 56.25-24.37 56.25-22.5 56.25-20.62 54.37-20.06 52.5-19.5 52.5-21.37 52.5-23.25 52.5-25.12 52.5-27 50.62-26.43 48.75-25.87 48.75-27.75 48.75-29.62 48.75-31.5 48.75-33.37 50.62-33.93 52.5-34.5 52.5-36.37 52.5-38.25 52.5-40.12 52.5-42 52.5-43.87 52.5-45.75 52.5-47.62 52.5-49.5M67.5-50.25Q69.37-50.81 71.25-51.37 71.25-49.5 71.25-47.62 71.25-45.75 71.25-43.87 71.25-42 71.25-40.12 71.25-38.25 71.25-36.37 71.25-34.5 71.25-32.62 71.25-30.75 71.25-28.87 71.25-27 71.25-25.12 71.25-23.25 71.25-21.37 69.37-20.81 67.5-20.25 67.5-21.65 67.5-23.06 67.5-24.46 67.5-25.87 67.5-27.27 67.5-28.68 67.5-30.09 67.5-31.5 65.62-30.93 63.75-30.37 63.75-32.25 63.75-34.12 63.75-36 63.75-37.87 65.62-38.43 67.5-39 67.5-40.4 67.5-41.81 67.5-43.21 67.5-44.62 67.5-46.02 67.5-47.43 67.5-48.84 67.5-50.25M48.75-18.37Q50.62-18.93 52.5-19.5 52.5-17.62 52.5-15.75 52.5-13.87 52.5-12 50.62-11.43 48.75-10.87 48.75-12.75 48.75-14.62 48.75-16.5 48.75-18.37M45-9.75Q46.87-10.31 48.75-10.87 48.75-9 48.75-7.12 46.87-6.56 45-6 45-7.88 45-9.75M86.25-18.37Q84.37-17.81 82.5-17.25 82.5-19.59 82.5-21.93 82.5-24.27 82.5-26.62 82.5-28.96 82.5-31.31 82.5-33.65 82.5-36 80.62-35.43 78.75-34.87 78.75-36.75 78.75-38.62 78.75-40.5 78.75-42.37 80.62-42.93 82.5-43.5 82.5-45.37 82.5-47.25 82.5-49.12 82.5-51 82.5-52.87 82.5-54.75 82.5-56.62 82.5-58.5 84.37-59.06 86.25-59.62 86.25-58.33 86.25-57.04 86.25-55.75 86.25-54.46 86.25-53.17 86.25-51.88 86.25-50.59 86.25-49.31 86.25-48.02 86.25-46.73 86.25-45.44 86.25-44.15 86.25-42.86 86.25-41.57 86.25-40.28 86.25-38.99 86.25-37.7 86.25-36.41 86.25-35.13 86.25-33.84 86.25-32.55 86.25-31.26 86.25-29.97 86.25-28.68 86.25-27.39 86.25-26.1 86.25-24.81 86.25-23.53 86.25-22.24 86.25-20.95 86.25-19.66 86.25-18.37M112.5-26.62Q114.37-26.06 116.25-25.5 118.12-24.93 120-24.37 120-25.78 120-27.18 120-28.59 120-29.99 120-31.4 120-32.81 120-34.21 120-35.62 118.12-36.18 116.25-36.75 114.37-37.31 112.5-37.87 112.5-36.46 112.5-35.06 112.5-33.65 112.5-32.24 112.5-30.84 112.5-29.43 112.5-28.03 112.5-26.62M108.75-42.75Q108.75-44.15 108.75-45.56 108.75-46.96 108.75-48.37 108.75-49.77 108.75-51.18 108.75-52.59 108.75-54 110.62-53.43 112.5-52.87 112.5-51.46 112.5-50.06 112.5-48.65 112.5-47.24 112.5-45.84 112.5-44.43 112.5-43.03 112.5-41.62 114.37-41.06 116.25-40.5 118.12-39.93 120-39.37 120-40.78 120-42.18 120-43.59 120-44.99 120-46.4 120-47.81 120-49.21 120-50.62 121.87-50.06 123.75-49.5 123.75-48.09 123.75-46.68 123.75-45.27 123.75-43.87 123.75-42.46 123.75-41.06 123.75-39.65 123.75-38.25 125.62-37.68 127.5-37.12 129.37-36.56 131.25-36 131.25-34.12 131.25-32.25 129.37-32.81 127.5-33.37 125.62-33.93 123.75-34.5 123.75-32.62 123.75-30.75 123.75-28.87 123.75-27 123.75-25.12 123.75-23.25 123.75-21.37 123.75-19.5 121.87-20.06 120-20.62 118.12-21.18 116.25-21.75 114.37-22.31 112.5-22.87 110.62-23.43 108.75-24 108.75-25.87 108.75-27.75 108.75-29.62 108.75-31.5 108.75-33.37 108.75-35.25 108.75-37.12 108.75-39 106.87-39.56 105-40.12 103.12-40.68 101.25-41.25 101.25-39.84 101.25-38.43 101.25-37.03 101.25-35.62 101.25-34.21 101.25-32.81 101.25-31.4 101.25-30 101.25-28.59 101.25-27.18 101.25-25.78 101.25-24.37 101.25-22.96 101.25-21.56 101.25-20.15 101.25-18.75 103.12-18.18 105-17.62 106.87-17.06 108.75-16.5 110.62-15.93 112.5-15.37 114.37-14.81 116.25-14.25 118.12-13.68 120-13.12 121.87-12.56 123.75-12 125.62-11.43 127.5-10.87 129.37-10.31 131.25-9.75 131.25-7.88 131.25-6 129.13-6.63 127.03-7.26 124.92-7.89 122.81-8.53 120.7-9.16 118.59-9.79 116.48-10.43 114.37-11.06 112.26-11.69 110.15-12.32 108.04-12.96 105.93-13.59 103.82-14.22 101.71-14.85 99.6-15.49 97.5-16.12 97.5-17.76 97.5-19.4 97.5-21.04 97.5-22.68 97.5-24.32 97.5-25.96 97.5-27.6 97.5-29.24 97.5-30.88 97.5-32.52 97.5-34.16 97.5-35.81 97.5-37.45 97.5-39.09 97.5-40.73 97.5-42.37 95.62-42.93 93.75-43.5 91.87-44.06 90-44.62 90-46.49 90-48.37 91.87-47.81 93.75-47.25 95.62-46.68 97.5-46.12 97.5-47.53 97.5-48.93 97.5-50.34 97.5-51.74 97.5-53.15 97.5-54.56 97.5-55.96 97.5-57.37 99.37-56.81 101.25-56.25 101.25-54.84 101.25-53.43 101.25-52.02 101.25-50.62 101.25-49.21 101.25-47.81 101.25-46.4 101.25-45 103.12-44.43 105-43.87 106.87-43.31 108.75-42.75M168.75-32.25Q167.34-32.67 165.93-33.09 164.52-33.51 163.12-33.93 161.71-34.36 160.31-34.78 158.9-35.2 157.5-35.62 157.5-33.74 157.5-31.87 158.9-31.45 160.31-31.03 161.71-30.61 163.12-30.18 164.52-29.76 165.93-29.34 167.34-28.92 168.75-28.5 168.75-30.37 168.75-32.25M157.5-24.37Q158.9-23.95 160.31-23.53 161.71-23.11 163.12-22.68 164.52-22.26 165.93-21.84 167.34-21.42 168.75-21 168.75-22.87 168.75-24.75 167.34-25.17 165.93-25.59 164.52-26.01 163.12-26.43 161.71-26.86 160.31-27.28 158.9-27.7 157.5-28.12 157.5-26.24 157.5-24.37M172.5-34.87Q172.5-32.53 172.5-30.18 172.5-27.84 172.5-25.49 172.5-23.15 172.5-20.81 172.5-18.46 172.5-16.12 170.62-16.68 168.75-17.25 166.87-17.81 165-18.37 165-16.49 165-14.62 163.12-15.18 161.25-15.75 161.25-17.61 161.25-19.5 159.84-19.92 158.43-20.34 157.02-20.76 155.62-21.18 154.21-21.61 152.81-22.03 151.4-22.45 150-22.87 150-20.99 150-19.12 148.12-19.68 146.25-20.25 146.25-22.11 146.25-24 144.37-24.56 142.5-25.12 140.62-25.68 138.75-26.25 138.75-28.59 138.75-30.93 138.75-33.27 138.75-35.62 138.75-37.96 138.75-40.31 138.75-42.65 138.75-45 140.85-44.36 142.96-43.73 145.07-43.1 147.18-42.46 149.29-41.83 151.4-41.2 153.51-40.57 155.62-39.93 157.73-39.3 159.84-38.67 161.95-38.03 164.06-37.4 166.17-36.77 168.28-36.14 170.39-35.5 172.5-34.87M142.5-32.62Q142.5-30.74 142.5-28.87 143.9-28.45 145.31-28.03 146.71-27.61 148.12-27.18 149.52-26.76 150.93-26.34 152.34-25.92 153.75-25.5 153.75-27.37 153.75-29.25 152.34-29.67 150.93-30.09 149.52-30.51 148.12-30.93 146.71-31.36 145.31-31.78 143.9-32.2 142.5-32.62M153.75-33Q153.75-34.87 153.75-36.75 152.34-37.17 150.93-37.59 149.52-38.01 148.12-38.43 146.71-38.86 145.31-39.28 143.9-39.7 142.5-40.12 142.5-38.24 142.5-36.37 143.9-35.95 145.31-35.53 146.71-35.11 148.12-34.68 149.52-34.26 150.93-33.84 152.34-33.42 153.75-33M142.5-21.37Q144.37-20.81 146.25-20.25 146.25-18.36 146.25-16.5 144.37-17.06 142.5-17.62 142.5-19.49 142.5-21.37M165-14.62Q166.87-14.06 168.75-13.5 168.75-11.62 168.75-9.75 166.87-10.31 165-10.87 165-12.74 165-14.62M135-19.87Q136.87-19.31 138.75-18.75 140.62-18.18 142.5-17.62 142.5-15.74 142.5-13.87 140.62-14.43 138.75-15 136.87-15.56 135-16.12 135-17.99 135-19.87M168.75-9.75Q170.62-9.18 172.5-8.62 174.37-8.06 176.25-7.5 176.25-5.62 176.25-3.75 174.37-4.31 172.5-4.87 170.62-5.43 168.75-6 168.75-7.87 168.75-9.75M146.25-16.5Q148.12-15.93 150-15.37 150-13.5 150-11.62 150-9.75 150-7.87 148.12-8.43 146.25-9 146.25-10.87 146.25-12.75 146.25-14.62 146.25-16.5M142.5-10.12Q144.37-9.56 146.25-9 146.25-7.13 146.25-5.25 144.37-5.81 142.5-6.37 142.5-8.25 142.5-10.12M142.5-2.62Q140.62-3.18 138.75-3.75 136.87-4.31 135-4.87 135-6.75 135-8.62 136.87-8.06 138.75-7.5 140.62-6.93 142.5-6.37 142.5-4.5 142.5-2.62M161.25-12Q163.12-11.43 165-10.87 165-9 165-7.12 165-5.25 165-3.37 165-1.5 165 0.37 165 2.25 165 4.12 163.12 3.56 161.25 3 161.25 1.12 161.25-0.75 161.25-2.62 161.25-4.5 161.25-6.37 161.25-8.25 161.25-10.12 161.25-12" transform="translate(0, 59.619998931884766)"></path></g></g></g></g> <g data-gra="path-slogan" fill-rule="" class="tp-slogan iconsvg-slogansvg" fill="#e2a171" transform="translate(5,76.1199951171875)"><rect x="0" height="1" y="3.9750003814697266" width="51.439998626708984"></rect> <rect height="1" y="3.9750003814697266" width="51.439998626708984" x="117.81000137329102"></rect> <g transform="translate(54.439998626708984,0)"><g transform="scale(1)"><path d="M0.19-1.92L0.19-2.77L1.27-2.77L1.27-2.16Q1.27-0.75 2.58-0.75L2.58-0.75Q3.94-0.75 3.94-2.25L3.94-2.25L3.94-8.58L5.11-8.58L5.11-2.30Q5.06 0.09 2.63 0.14L2.63 0.14Q0.33 0.09 0.19-1.92L0.19-1.92ZM7.73-1.03L13.03-1.03L13.03 0L6.28 0L6.28-0.94L11.53-7.59L6.66-7.59L6.66-8.58L13.03-8.58L13.03-7.59L7.73-1.03ZM22.27-7.13L22.22-7.13L20.25 0L19.03 0L16.78-8.58L18-8.58L19.64-1.59L19.69-1.59L21.61-8.58L22.88-8.58L24.80-1.59L24.84-1.59L26.44-8.58L27.70-8.58L25.45 0L24.23 0L22.27-7.13ZM35.58-4.27L35.58-4.27Q35.39-7.64 32.58-7.83L32.58-7.83Q29.72-7.69 29.58-4.27L29.58-4.27Q29.72-0.94 32.58-0.80L32.58-0.80Q35.39-0.98 35.58-4.27ZM36.75-4.27L36.75-4.27Q36.47 0 32.58 0.14L32.58 0.14Q28.64 0 28.36-4.27L28.36-4.27Q28.59-8.72 32.58-8.81L32.58-8.81Q36.47-8.67 36.75-4.27ZM42.23-3.70L39.42-3.70L39.42 0L38.25 0L38.25-8.58L42.23-8.58Q45.09-8.58 45.09-6.28L45.09-6.28Q45.09-4.88 43.88-4.22L43.88-4.22Q44.91-3.94 44.91-2.58L44.91-2.58L45-1.03Q44.95-0.38 45.42-0.19L45.42-0.19L45.42 0L43.97 0Q43.83-0.61 43.78-2.16L43.78-2.16Q43.83-3.70 42.23-3.70L42.23-3.70ZM42.33-7.64L39.42-7.64L39.42-4.69L42.14-4.69Q43.88-4.69 43.88-6.19L43.88-6.19Q43.88-7.64 42.33-7.64L42.33-7.64ZM46.73-8.58L47.91-8.58L47.91-1.03L52.27-1.03L52.27 0L46.73 0L46.73-8.58ZM56.91 0L53.44 0L53.44-8.58L56.95-8.58Q60.42-8.39 60.56-4.41L60.56-4.41Q60.38-0.09 56.91 0L56.91 0ZM56.77-7.64L54.61-7.64L54.61-0.98L56.86-0.98Q59.30-1.13 59.39-4.31L59.39-4.31Q59.34-7.55 56.77-7.64L56.77-7.64Z" transform="translate(-0.1875, 8.8125)"></path></g></g></g></g></g><defs v-gra="od"></defs></svg>